<svg width="963" height="963" viewBox="0 0 963 963" fill="none" xmlns="http://www.w3.org/2000/svg">
<circle cx="481.5" cy="481.5" r="481.5" fill="#6EA059"/>
<g clip-path="url(#clip0)">
<path d="M705.212 448.355C705.212 571.711 576.638 737 481.856 737C387.075 737 258.501 571.711 258.501 448.355C258.501 325 358.501 225 481.856 225C605.212 225 705.212 325 705.212 448.355V448.355Z" fill="#B1EF97"/>
<path d="M478.759 225.02C356.849 226.699 258.501 326.047 258.501 448.355C258.501 571.277 386.173 735.84 480.856 736.992C471.103 618.465 420.278 541.336 393.778 390.637C377.763 299.559 427.091 250.844 478.759 225.02V225.02Z" fill="#92DD7A"/>
<path d="M614.727 550.695C647.384 518.043 657.614 475.328 637.579 455.293C617.544 435.254 574.829 445.484 542.173 478.14C509.517 510.797 499.286 553.512 519.321 573.547C539.36 593.582 582.071 583.351 614.727 550.695Z" fill="#898890"/>
<path d="M348.985 550.703C381.642 583.359 424.357 593.59 444.392 573.551C464.427 553.516 454.196 510.801 421.544 478.148C388.888 445.492 346.173 435.262 326.138 455.297C306.103 475.332 316.333 518.047 348.985 550.703Z" fill="#898890"/>
<path d="M481.857 627.941C471.857 627.941 461.857 624.703 453.513 618.23C450.138 615.617 449.528 610.762 452.142 607.391C454.755 604.019 459.61 603.406 462.982 606.019C474.095 614.641 489.614 614.641 500.728 606.019C504.099 603.406 508.954 604.019 511.567 607.391C514.185 610.762 513.571 615.617 510.2 618.23C501.857 624.703 491.857 627.941 481.857 627.941Z" fill="#898890"/>
<path d="M326.134 455.297C306.099 475.332 316.329 518.047 348.982 550.703C368.067 569.785 390.579 581.207 409.997 583.41C407.794 582.945 375.528 575.281 366.513 525.41C357.29 474.371 421.54 478.145 421.54 478.145C388.884 445.492 346.169 435.262 326.134 455.297V455.297Z" fill="#75747A"/>
<path d="M637.579 455.297C657.614 475.332 647.384 518.047 614.728 550.703C595.646 569.785 573.138 581.207 553.716 583.41C555.919 582.945 588.185 575.281 597.196 525.41C606.423 474.371 542.173 478.145 542.173 478.145C574.829 445.492 617.544 435.262 637.579 455.297V455.297Z" fill="#75747A"/>
</g>
<defs>
<clipPath id="clip0">
<rect width="511" height="512" fill="white" transform="translate(226.001 226)"/>
</clipPath>
</defs>
</svg>
