<svg width="963" height="963" viewBox="0 0 963 963" fill="none" xmlns="http://www.w3.org/2000/svg">
<path d="M963 481.5C963 747.425 747.425 963 481.5 963C215.575 963 0 747.425 0 481.5C0 215.575 215.575 0 481.5 0C747.425 0 963 215.575 963 481.5Z" fill="#BCBCBC"/>
<path d="M571.653 519.299C571.653 569.011 531.213 609.452 481.5 609.452C431.787 609.452 391.362 569.011 391.362 519.299C391.362 469.586 431.787 429.145 481.5 429.145C531.213 429.145 571.653 469.601 571.653 519.299ZM761 391.285V647.343C761 681.479 733.324 709.155 699.188 709.155H263.812C229.676 709.155 202 681.479 202 647.343V391.285C202 357.149 229.676 329.473 263.812 329.473H339.842V308.086C339.842 278.215 364.041 254 393.927 254H569.073C598.959 254 623.158 278.215 623.158 308.086V329.457H699.188C733.324 329.473 761 357.149 761 391.285ZM618.013 519.299C618.013 444.027 556.772 382.786 481.5 382.786C406.243 382.786 345.003 444.027 345.003 519.299C345.003 594.571 406.243 655.811 481.5 655.811C556.772 655.811 618.013 594.571 618.013 519.299Z" fill="#636363"/>
</svg>
