<svg width="963" height="963" viewBox="0 0 963 963" fill="none" xmlns="http://www.w3.org/2000/svg">
<circle cx="481.5" cy="481.5" r="481.5" fill="#D4C48D"/>
<g clip-path="url(#clip0)">
<path d="M669.379 229.741C680.207 220.943 696.397 228.649 696.397 242.6V464.61L514.137 356.911L669.379 229.741Z" fill="#FFC850"/>
<path d="M679.828 454.819L568.855 389.245L661.317 285.004C667.782 277.716 679.828 282.288 679.828 292.031V454.819Z" fill="#EBAF4B"/>
<path d="M292.619 229.741C281.79 220.943 265.601 228.649 265.601 242.6V464.61L447.861 356.911L292.619 229.741Z" fill="#FFC850"/>
<path d="M282.17 454.819L393.143 389.245L300.681 285.004C294.216 277.716 282.17 282.288 282.17 292.031C282.17 292.031 282.17 454.819 282.17 454.819Z" fill="#EBAF4B"/>
<path d="M480.999 738C609.112 738 712.969 639.708 712.969 518.46C712.969 397.211 609.112 298.92 480.999 298.92C352.885 298.92 249.029 397.211 249.029 518.46C249.029 639.708 352.885 738 480.999 738Z" fill="#FFDC64"/>
<path d="M514.137 655.155V671.724C514.137 690.026 499.301 704.862 480.999 704.862C462.697 704.862 447.861 690.026 447.861 671.724V655.155L480.999 638.586L514.137 655.155Z" fill="#FF8087"/>
<path d="M499.293 569.862H462.705C454.806 569.862 450.432 579.019 455.398 585.162L473.693 607.796C477.453 612.447 484.545 612.447 488.306 607.796L506.601 585.162C511.566 579.019 507.193 569.862 499.293 569.862Z" fill="#5D5360"/>
<path d="M704.673 663.439C703.387 663.439 702.08 663.14 700.858 662.505C650.766 636.458 572.367 620.981 571.578 620.827C567.088 619.953 564.159 615.601 565.033 611.11C565.911 606.616 570.219 603.683 574.75 604.565C578.051 605.208 656.265 620.641 708.504 647.804C712.561 649.916 714.143 654.915 712.031 658.977C710.555 661.813 707.667 663.439 704.673 663.439Z" fill="#E1A546"/>
<path d="M721.255 605.451C720.543 605.451 719.819 605.358 719.099 605.164C672.664 592.681 588.229 595.051 587.396 595.087C582.744 595.221 578.998 591.628 578.865 587.057C578.727 582.482 582.324 578.663 586.895 578.526C590.455 578.413 674.631 576.05 723.404 589.161C727.821 590.35 730.439 594.893 729.253 599.314C728.257 603.012 724.912 605.447 721.255 605.451Z" fill="#E1A546"/>
<path d="M538.991 721.431C410.879 721.431 307.024 623.14 307.024 501.891C307.024 412.856 363.058 336.257 443.542 301.81C333.248 318.762 249.032 409.285 249.032 518.46C249.032 639.709 352.887 738 480.999 738C515.036 738 547.327 731.005 576.448 718.541C564.25 720.416 551.748 721.431 538.991 721.431Z" fill="#FFC850"/>
<path d="M257.324 663.439C254.331 663.439 251.442 661.817 249.966 658.977C247.854 654.916 249.436 649.916 253.493 647.804C305.733 620.641 383.946 605.208 387.247 604.565C391.741 603.663 396.086 606.62 396.964 611.11C397.838 615.6 394.909 619.953 390.419 620.827C389.63 620.981 311.23 636.458 261.139 662.505C259.917 663.14 258.611 663.439 257.324 663.439Z" fill="#E1A546"/>
<path d="M240.743 605.451C237.086 605.451 233.741 603.012 232.746 599.314C231.561 594.893 234.178 590.35 238.595 589.161C287.372 576.046 371.536 578.425 375.104 578.526C379.675 578.664 383.271 582.482 383.134 587.057C382.996 591.628 379.036 595.253 374.603 595.087C373.754 595.059 289.306 592.68 242.9 605.164C242.179 605.358 241.455 605.451 240.743 605.451Z" fill="#E1A546"/>
<path d="M385.727 547.456C369.779 547.456 356.731 534.408 356.731 518.46V501.891C356.731 485.943 369.779 472.895 385.727 472.895C401.675 472.895 414.723 485.943 414.723 501.891V518.46C414.723 534.407 401.675 547.456 385.727 547.456Z" fill="#4B3F4E"/>
<path d="M385.727 472.895C384.309 472.895 382.949 473.116 381.585 473.316V514.318C381.585 523.469 389.003 530.887 398.154 530.887C407.305 530.887 414.723 523.469 414.723 514.318V501.891C414.723 485.943 401.674 472.895 385.727 472.895Z" fill="#5D5360"/>
<path d="M385.729 506.037C392.592 506.037 398.156 500.473 398.156 493.61C398.156 486.747 392.592 481.183 385.729 481.183C378.866 481.183 373.302 486.747 373.302 493.61C373.302 500.473 378.866 506.037 385.729 506.037Z" fill="white"/>
<path d="M576.271 547.456C560.323 547.456 547.275 534.408 547.275 518.46V501.891C547.275 485.943 560.323 472.895 576.271 472.895C592.219 472.895 605.267 485.943 605.267 501.891V518.46C605.267 534.407 592.219 547.456 576.271 547.456Z" fill="#4B3F4E"/>
<path d="M576.271 472.895C574.853 472.895 573.493 473.116 572.129 473.316V514.318C572.129 523.469 579.547 530.887 588.698 530.887C597.849 530.887 605.267 523.469 605.267 514.318V501.891C605.267 485.943 592.219 472.895 576.271 472.895Z" fill="#5D5360"/>
<path d="M576.269 506.037C583.132 506.037 588.696 500.473 588.696 493.61C588.696 486.747 583.132 481.183 576.269 481.183C569.406 481.183 563.842 486.747 563.842 493.61C563.842 500.473 569.406 506.037 576.269 506.037Z" fill="white"/>
<path d="M487.408 608.15L469.113 571.935C468.781 571.277 468.595 570.557 468.344 569.861H462.705C454.806 569.861 450.432 579.018 455.397 585.161L473.692 607.795C477.242 612.185 483.673 612.28 487.555 608.382C487.511 608.297 487.453 608.239 487.408 608.15Z" fill="#4B3F4E"/>
<path d="M480.999 638.586L447.861 655.155V671.724C447.861 674.353 448.244 676.878 448.822 679.33C457.159 678.296 465.211 675.881 472.714 672.177V680.008C472.714 684.583 476.423 688.293 480.999 688.293C485.575 688.293 489.284 684.584 489.284 680.008V672.178C496.788 675.882 504.84 678.297 513.176 679.33C513.754 676.878 514.137 674.352 514.137 671.724V655.155L480.999 638.586Z" fill="#E6646E"/>
<path d="M522.422 663.439C510.703 663.439 499.409 659.956 489.769 653.366C484.607 649.839 477.395 649.839 472.225 653.366C462.589 659.956 451.295 663.439 439.576 663.439C425.317 663.439 411.583 658.164 400.904 648.589C397.498 645.531 397.215 640.292 400.269 636.886C403.323 633.48 408.55 633.197 411.972 636.251C425.883 648.734 447.655 650.098 462.877 639.685C473.718 632.282 488.285 632.282 499.118 639.685C514.344 650.093 536.119 648.726 550.031 636.255C553.433 633.205 558.667 633.48 561.73 636.894C564.784 640.3 564.497 645.539 561.091 648.593C550.41 658.168 536.681 663.439 522.422 663.439Z" fill="#EBAF4B"/>
</g>
<defs>
<clipPath id="clip0">
<rect width="512" height="512" fill="white" transform="translate(225 226)"/>
</clipPath>
</defs>
</svg>
