<svg width="963" height="963" viewBox="0 0 963 963" fill="none" xmlns="http://www.w3.org/2000/svg">
<circle cx="481.5" cy="481.5" r="481.5" fill="#EEDDC2"/>
<g clip-path="url(#clip0)">
<path d="M663.677 271.419H581.096C551.161 283.29 544.526 263.161 482.001 263.161C419.476 263.161 412.84 283.29 382.904 271.419H300.323L289.312 478.904C296.194 560.452 346.774 604.839 386.689 621.011H577.312C617.227 604.839 667.807 560.452 674.689 478.904L663.677 271.419Z" fill="#F5DCB4"/>
<path d="M581.098 271.419C674.079 299.25 623.461 442.774 683.331 504.813C691.926 513.719 707.112 509.763 710.699 497.918C715.439 482.267 720.173 457.507 719.42 422.129C718.388 373.613 738.001 370.517 738.001 370.517C738.001 370.517 713.227 254.903 638.904 254.903C614.13 254.903 581.098 271.419 581.098 271.419Z" fill="#965A50"/>
<path d="M395.291 486.129C379.394 486.129 366.388 473.123 366.388 457.226V440.71C366.388 424.813 379.394 411.807 395.291 411.807C411.188 411.807 424.194 424.813 424.194 440.71V457.226C424.195 473.124 411.188 486.129 395.291 486.129Z" fill="#4B3F4E"/>
<path d="M395.291 411.806C393.878 411.806 392.522 412.027 391.162 412.225V453.096C391.162 462.217 398.557 469.612 407.678 469.612C416.8 469.612 424.194 462.217 424.194 453.096V440.71C424.195 424.814 411.188 411.806 395.291 411.806Z" fill="#5D5360"/>
<path d="M395.291 444.838C402.132 444.838 407.678 439.292 407.678 432.451C407.678 425.61 402.132 420.064 395.291 420.064C388.45 420.064 382.904 425.61 382.904 432.451C382.904 439.292 388.45 444.838 395.291 444.838Z" fill="white"/>
<path d="M568.711 486.129C552.814 486.129 539.808 473.123 539.808 457.226V440.71C539.808 424.813 552.814 411.807 568.711 411.807C584.608 411.807 597.614 424.813 597.614 440.71V457.226C597.614 473.124 584.607 486.129 568.711 486.129Z" fill="#4B3F4E"/>
<path d="M568.711 411.806C567.298 411.806 565.942 412.027 564.582 412.225V453.096C564.582 462.217 571.977 469.612 581.098 469.612C590.22 469.612 597.614 462.217 597.614 453.096V440.71C597.614 424.814 584.607 411.806 568.711 411.806Z" fill="#5D5360"/>
<path d="M568.711 444.838C575.552 444.838 581.098 439.292 581.098 432.451C581.098 425.61 575.552 420.064 568.711 420.064C561.87 420.064 556.324 425.61 556.324 432.451C556.324 439.292 561.87 444.838 568.711 444.838Z" fill="white"/>
<path d="M683.331 504.814C691.926 513.72 707.112 509.764 710.699 497.918C713.417 488.942 716.098 476.858 717.779 461.605C701.545 453.513 687.687 427.695 679.162 383.936C663.678 304.452 642.001 260.065 581.098 271.419C674.079 299.25 623.461 442.775 683.331 504.814Z" fill="#824641"/>
<path d="M386.689 621.011H425.831C425.831 621.011 357.098 574.904 345.743 493.355C323.654 334.712 365.701 287.247 402.068 275.135C396.307 275.33 390.323 274.361 382.905 271.42H300.323L289.312 478.904C296.194 560.452 346.774 604.839 386.689 621.011Z" fill="#E7C9A5"/>
<path d="M382.904 271.419C289.923 299.25 340.542 442.775 280.671 504.813C272.076 513.719 256.89 509.763 253.303 497.918C248.563 482.267 243.829 457.507 244.582 422.129C245.614 373.613 226.001 370.517 226.001 370.517C226.001 370.517 250.775 254.903 325.098 254.903C349.872 254.903 382.904 271.419 382.904 271.419Z" fill="#965A50"/>
<path d="M380.14 270.104C371.76 266.216 345.624 254.903 325.098 254.903C250.775 254.903 226.001 370.517 226.001 370.517C226.001 370.517 245.614 373.614 244.582 422.13C244.568 422.778 244.587 423.361 244.577 424.002C292.098 243.715 365.12 263.773 380.14 270.104Z" fill="#824641"/>
<path d="M482.001 692.58C532.171 692.58 572.841 663.004 572.841 626.52C572.841 590.036 532.171 560.46 482.001 560.46C431.832 560.46 391.161 590.036 391.161 626.52C391.161 663.004 431.832 692.58 482.001 692.58Z" fill="#BC8E78"/>
<path d="M440.711 626.516V667.806C440.711 690.61 459.197 709.096 482.001 709.096C504.805 709.096 523.291 690.61 523.291 667.806V626.516H440.711Z" fill="#FF8087"/>
<path d="M440.711 658.768C452.652 657.272 463.919 653.639 473.743 648.146V659.548C473.743 664.108 477.441 667.806 482.001 667.806C486.561 667.806 490.259 664.108 490.259 659.548V648.041C499.988 653.593 511.285 657.266 523.291 658.771V626.515H440.711V658.768V658.768Z" fill="#E6646E"/>
<path d="M535.678 552.194H428.324C394.118 552.194 366.389 572.529 366.389 597.613C366.389 622.697 394.119 643.032 428.324 643.032C445.549 643.032 461.106 637.863 472.319 629.534C475.158 627.426 478.581 626.372 481.998 626.372C485.421 626.372 488.844 627.425 491.683 629.534C502.896 637.863 518.453 643.032 535.678 643.032C569.884 643.032 597.613 622.697 597.613 597.613C597.614 572.529 569.884 552.194 535.678 552.194Z" fill="#D4AF91"/>
<path d="M482.001 519.161C509.366 519.161 531.549 533.95 531.549 552.193C531.549 569.787 510.725 579.051 495.696 585.901C486.984 589.872 477.016 589.872 468.304 585.901C453.275 579.051 432.451 569.787 432.451 552.193C432.453 533.951 454.636 519.161 482.001 519.161Z" fill="#5D5360"/>
<path d="M456.969 543.161C455.814 532.768 463.135 521.654 463.135 521.654C445.132 526.603 432.453 538.405 432.453 552.193C432.453 569.786 453.277 579.05 468.306 585.901C477.017 589.871 486.986 589.871 495.698 585.901C498.93 584.428 502.43 582.832 505.933 581.077C485.614 577.484 459.291 564.065 456.969 543.161Z" fill="#4B3F4E"/>
</g>
<defs>
<clipPath id="clip0">
<rect width="512" height="512" fill="white" transform="translate(226.001 226)"/>
</clipPath>
</defs>
</svg>
