<svg width="963" height="963" viewBox="0 0 963 963" fill="none" xmlns="http://www.w3.org/2000/svg">
<circle cx="481.5" cy="481.5" r="481.5" fill="#DA6B8A"/>
<path d="M525.785 241.453C521.16 241.453 516.766 243.467 513.745 246.97L505.179 256.906L480.825 447.532H496.277L527.565 371.997C536.884 349.499 541.68 325.386 541.68 301.035V257.349C541.68 248.57 534.564 241.453 525.785 241.453Z" fill="#FBBECF"/>
<path d="M510.775 301.033V272.801C510.775 264.022 507.982 256.905 505.179 256.905L497.659 236.852C495.211 230.325 488.971 226 482 226C475.029 226 468.789 230.325 466.341 236.852L458.821 256.905L450.254 246.969C447.235 243.467 442.839 241.453 438.215 241.453C429.436 241.453 422.32 248.569 422.32 257.348V301.033C422.32 325.385 427.116 349.497 436.435 371.995L467.723 447.53H496.278L506.269 371.995C509.244 349.498 510.775 325.385 510.775 301.033Z" fill="#FBCFDB"/>
<path d="M342.868 280.947C339.598 284.217 337.914 288.748 338.256 293.361L339.224 306.444L456.796 458.457L467.723 447.53L436.435 371.995C427.116 349.497 413.457 329.055 396.238 311.837L365.348 280.947C359.141 274.739 349.076 274.739 342.868 280.947V280.947Z" fill="#FBBECF"/>
<path d="M374.384 333.69L354.421 313.727C348.213 307.52 341.206 304.462 339.224 306.445L319.726 297.581C313.38 294.697 305.909 296.052 300.98 300.981C296.05 305.91 294.696 313.38 297.58 319.727L306.443 339.224L293.359 338.256C288.747 337.915 284.215 339.598 280.946 342.868C274.738 349.076 274.738 359.141 280.946 365.348L311.836 396.238C329.055 413.457 349.497 427.115 371.994 436.434L447.529 467.722L467.721 447.53L421.374 387.055C407.571 369.043 391.604 350.91 374.384 333.69V333.69Z" fill="#FBCFDB"/>
<path d="M241.453 438.215C241.453 442.84 243.467 447.234 246.969 450.255L256.905 458.821L447.531 483.175V467.723L371.996 436.435C349.498 427.116 325.386 422.319 301.034 422.319H257.348C248.569 422.319 241.453 429.436 241.453 438.215Z" fill="#FBBECF"/>
<path d="M301.033 453.225H272.801C264.022 453.225 256.905 456.017 256.905 458.821L236.852 466.341C230.325 468.789 226 475.028 226 482C226 488.971 230.325 495.211 236.852 497.658L256.905 505.179L246.969 513.746C243.467 516.765 241.453 521.161 241.453 525.784C241.453 534.564 248.569 541.68 257.348 541.68H301.033C325.385 541.68 349.497 536.884 371.995 527.565L447.53 496.277V467.721L371.995 457.731C349.498 454.755 325.385 453.225 301.033 453.225V453.225Z" fill="#FBCFDB"/>
<path d="M280.947 621.132C284.217 624.402 288.748 626.086 293.36 625.744L306.444 624.776L458.457 507.204L447.53 496.277L371.995 527.565C349.497 536.884 329.055 550.543 311.837 567.762L280.947 598.652C274.739 604.859 274.739 614.924 280.947 621.132V621.132Z" fill="#FBBECF"/>
<path d="M333.69 589.616L313.727 609.579C307.519 615.787 304.462 622.794 306.445 624.776L297.582 644.273C294.698 650.619 296.052 658.09 300.982 663.019C305.911 667.949 313.381 669.303 319.728 666.419L339.225 657.556L338.257 670.64C337.916 675.252 339.599 679.783 342.869 683.053C349.077 689.261 359.142 689.261 365.348 683.053L396.238 652.163C413.458 634.944 427.116 614.502 436.435 592.005L467.723 516.47L447.531 496.278L387.055 542.625C369.043 556.429 350.909 572.396 333.69 589.616V589.616Z" fill="#FBCFDB"/>
<path d="M438.215 722.547C442.84 722.547 447.235 720.533 450.255 717.031L458.821 707.094L483.175 516.469H467.723L436.435 592.004C427.116 614.502 422.32 638.614 422.32 662.966V706.65C422.32 715.431 429.436 722.547 438.215 722.547V722.547Z" fill="#FBBECF"/>
<path d="M453.225 662.967V691.199C453.225 699.978 456.018 707.094 458.821 707.094L466.341 727.148C468.789 733.675 475.029 738 482 738C488.971 738 495.211 733.675 497.659 727.148L505.179 707.094L513.746 717.031C516.766 720.533 521.161 722.547 525.785 722.547C534.564 722.547 541.68 715.431 541.68 706.651V662.967C541.68 638.615 536.884 614.503 527.565 592.005L496.277 516.47H467.722L457.731 592.005C454.756 614.502 453.225 638.615 453.225 662.967V662.967Z" fill="#FBCFDB"/>
<path d="M621.132 683.053C624.402 679.784 626.086 675.252 625.744 670.64L624.776 657.556L507.204 505.543L496.277 516.47L527.565 592.005C536.884 614.503 550.543 634.945 567.762 652.163L598.652 683.053C604.859 689.261 614.924 689.261 621.132 683.053V683.053Z" fill="#FBBECF"/>
<path d="M589.616 630.31L609.579 650.273C615.787 656.481 622.794 659.538 624.776 657.555L644.273 666.418C650.619 669.302 658.09 667.948 663.019 663.018C667.949 658.089 669.303 650.619 666.419 644.272L657.556 624.775L670.64 625.743C675.252 626.084 679.783 624.401 683.053 621.131C689.261 614.923 689.261 604.858 683.053 598.652L652.163 567.762C634.944 550.542 614.502 536.884 592.005 527.565L516.47 496.277L496.278 516.469L542.625 576.945C556.429 594.957 572.396 613.091 589.616 630.31V630.31Z" fill="#FBCFDB"/>
<path d="M722.547 525.784C722.547 521.16 720.533 516.765 717.031 513.745L707.095 505.179L516.469 480.824V496.277L592.004 527.565C614.502 536.884 638.614 541.68 662.966 541.68H706.651C715.431 541.68 722.547 534.564 722.547 525.784V525.784Z" fill="#FBBECF"/>
<path d="M662.967 510.775H691.199C699.978 510.775 707.095 507.982 707.095 505.179L727.148 497.659C733.675 495.211 738 488.971 738 482C738 475.029 733.675 468.789 727.148 466.341L707.095 458.821L717.031 450.254C720.533 447.234 722.547 442.838 722.547 438.215C722.547 429.436 715.431 422.319 706.652 422.319H662.967C638.615 422.319 614.503 427.116 592.005 436.435L516.47 467.723V496.278L592.005 506.269C614.502 509.244 638.615 510.775 662.967 510.775V510.775Z" fill="#FBCFDB"/>
<path d="M683.053 342.868C679.783 339.598 675.252 337.913 670.64 338.255L657.556 339.224L505.543 456.795L516.47 467.722L592.005 436.435C614.503 427.116 634.945 413.457 652.163 396.238L683.053 365.348C689.261 359.14 689.261 349.075 683.053 342.868V342.868Z" fill="#FBBECF"/>
<path d="M630.31 374.384L650.273 354.421C656.481 348.214 659.538 341.206 657.555 339.224L666.418 319.727C669.302 313.381 667.948 305.91 663.018 300.981C658.089 296.051 650.619 294.697 644.272 297.581L624.775 306.444L625.743 293.361C626.084 288.748 624.401 284.217 621.131 280.947C614.923 274.739 604.858 274.739 598.652 280.947L567.762 311.837C550.542 329.056 536.884 349.498 527.565 371.995L496.277 447.53L516.469 467.722L576.945 421.375C594.957 407.572 613.091 391.604 630.31 374.384V374.384Z" fill="#FBCFDB"/>
<path d="M482 522.383C504.303 522.383 522.383 504.303 522.383 482C522.383 459.697 504.303 441.617 482 441.617C459.697 441.617 441.617 459.697 441.617 482C441.617 504.303 459.697 522.383 482 522.383Z" fill="#FAEC8E"/>
<path d="M482 457.069C490.534 457.069 497.453 450.151 497.453 441.617C497.453 433.082 490.534 426.164 482 426.164C473.466 426.164 466.547 433.082 466.547 441.617C466.547 450.151 473.466 457.069 482 457.069Z" fill="#FBF6C3"/>
<path d="M453.444 468.898C461.979 468.898 468.897 461.979 468.897 453.445C468.897 444.911 461.979 437.992 453.444 437.992C444.91 437.992 437.992 444.911 437.992 453.445C437.992 461.979 444.91 468.898 453.444 468.898Z" fill="#FBF9E9"/>
<path d="M441.617 497.452C450.151 497.452 457.07 490.534 457.07 482C457.07 473.465 450.151 466.547 441.617 466.547C433.083 466.547 426.164 473.465 426.164 482C426.164 490.534 433.083 497.452 441.617 497.452Z" fill="#FBF6C3"/>
<path d="M453.444 526.008C461.979 526.008 468.897 519.09 468.897 510.555C468.897 502.021 461.979 495.103 453.444 495.103C444.91 495.103 437.992 502.021 437.992 510.555C437.992 519.09 444.91 526.008 453.444 526.008Z" fill="#FBF9E9"/>
<path d="M482 537.836C490.534 537.836 497.453 530.918 497.453 522.383C497.453 513.849 490.534 506.931 482 506.931C473.466 506.931 466.547 513.849 466.547 522.383C466.547 530.918 473.466 537.836 482 537.836Z" fill="#FBF6C3"/>
<path d="M510.555 526.008C519.089 526.008 526.007 519.09 526.007 510.555C526.007 502.021 519.089 495.103 510.555 495.103C502.02 495.103 495.102 502.021 495.102 510.555C495.102 519.09 502.02 526.008 510.555 526.008Z" fill="#FBF9E9"/>
<path d="M522.383 497.452C530.917 497.452 537.836 490.534 537.836 482C537.836 473.465 530.917 466.547 522.383 466.547C513.849 466.547 506.93 473.465 506.93 482C506.93 490.534 513.849 497.452 522.383 497.452Z" fill="#FBF6C3"/>
<path d="M510.555 468.898C519.089 468.898 526.007 461.979 526.007 453.445C526.007 444.911 519.089 437.992 510.555 437.992C502.02 437.992 495.102 444.911 495.102 453.445C495.102 461.979 502.02 468.898 510.555 468.898Z" fill="#FBF9E9"/>
</svg>
