<svg width="963" height="963" viewBox="0 0 963 963" fill="none" xmlns="http://www.w3.org/2000/svg">
<path d="M963 481.5C963 747.425 747.425 963 481.5 963C215.575 963 0 747.425 0 481.5C0 215.575 215.575 0 481.5 0C747.425 0 963 215.575 963 481.5Z" fill="#BCBCBC"/>
<g clip-path="url(#clip0)">
<path d="M359.333 642C325.179 642 294.8 620.133 283.771 587.579L283.024 585.125C280.421 576.507 279.333 569.253 279.333 562V416.549L227.579 589.307C220.923 614.715 236.091 641.061 261.541 648.08L591.419 736.421C595.536 737.488 599.653 738 603.707 738C624.955 738 644.368 723.899 649.808 703.12L669.029 642H359.333Z" fill="black"/>
<path d="M418 418C441.531 418 460.667 398.864 460.667 375.333C460.667 351.803 441.531 332.667 418 332.667C394.469 332.667 375.333 351.803 375.333 375.333C375.333 398.864 394.469 418 418 418Z" fill="#F1F463"/>
<path d="M684.667 268.667H364.667C335.269 268.667 311.333 292.603 311.333 322V556.667C311.333 586.064 335.269 610 364.667 610H684.667C714.064 610 738 586.064 738 556.667V322C738 292.603 714.064 268.667 684.667 268.667ZM364.667 311.333H684.667C690.555 311.333 695.333 316.112 695.333 322V473.445L627.941 394.811C620.795 386.427 610.448 381.947 599.333 381.691C588.283 381.755 577.915 386.661 570.832 395.152L491.6 490.256L465.787 464.507C451.195 449.915 427.451 449.915 412.88 464.507L354 523.365V322C354 316.112 358.779 311.333 364.667 311.333V311.333Z" fill="#567E68"/>
</g>
<defs>
<clipPath id="clip0">
<rect width="512" height="512" fill="white" transform="translate(226 226)"/>
</clipPath>
</defs>
</svg>
