<svg width="963" height="963" viewBox="0 0 963 963" fill="none" xmlns="http://www.w3.org/2000/svg">
<circle cx="481.5" cy="481.5" r="481.5" fill="#DAA3AB"/>
<path d="M388.904 275.634C367.211 238.061 311.683 212.226 274.109 233.918C236.536 255.611 231.148 316.617 252.84 354.19C274.533 391.762 389.933 521.299 427.506 499.607C465.078 477.914 410.596 313.207 388.904 275.634V275.634Z" fill="#FFD4D5"/>
<path d="M391.976 438.064C351.495 406.139 303.874 349.865 292.987 331.012C281.827 311.681 286.027 280.568 297.29 274.064C307.889 267.943 337.12 278.657 348.756 298.812C359.421 317.284 384.484 386.485 391.976 438.064Z" fill="#FFB5C0"/>
<path d="M575.099 275.634C596.791 238.061 652.319 212.226 689.893 233.918C727.467 255.611 732.855 316.618 711.162 354.191C689.469 391.763 574.07 521.3 536.497 499.608C498.924 477.914 553.406 313.207 575.099 275.634V275.634Z" fill="#FFEDEE"/>
<path d="M572.026 438.07C579.511 386.51 604.586 317.277 615.246 298.812C626.892 278.642 656.12 267.946 666.715 274.065C677.977 280.568 682.176 311.681 671.015 331.012C660.332 349.514 612.906 405.831 572.026 438.07Z" fill="#FFB5C0"/>
<path d="M482.987 453.174C433.489 453.174 386.567 475.862 356.341 515.059C336.989 540.156 323.309 567.025 323.309 592.837C323.309 681.025 394.8 737.999 482.987 737.999C497.559 737.999 511.672 736.433 525.084 733.438C534.318 731.377 543.24 728.632 551.727 725.244C605.519 703.77 642.665 656.42 642.665 592.836C642.665 567.024 628.985 540.155 609.633 515.058C579.407 475.863 532.485 453.174 482.987 453.174V453.174Z" fill="#FFEDEE"/>
<path d="M514.291 427.025L503.194 432.301L499.077 420.723C496.385 413.153 489.685 409.368 482.987 409.368C476.289 409.368 469.59 413.153 466.898 420.723L462.78 432.301L451.683 427.025C437.17 420.126 422.029 435.267 428.928 449.779L434.205 460.718C434.208 460.72 434.212 460.722 434.215 460.724C403.674 470.411 376.348 489.113 356.341 515.06C336.989 540.156 323.309 567.024 323.309 592.837C323.309 681.025 394.8 737.999 482.987 737.999C497.974 737.999 512.778 736.366 527.312 732.929C511.525 730.502 496.603 725.452 482.987 718.27V717.983C437.715 694.094 407.504 650.052 407.504 592.837C407.504 588.397 407.909 583.535 408.678 578.366C416.779 523.922 457.372 479.943 510.665 466.171L531.77 460.718L537.046 449.778C543.944 435.267 528.804 420.126 514.291 427.025V427.025Z" fill="#FFD4D5"/>
<path d="M401.029 660.799C417.731 660.799 431.27 650.017 431.27 636.717C431.27 623.416 417.731 612.634 401.029 612.634C384.327 612.634 370.788 623.416 370.788 636.717C370.788 650.017 384.327 660.799 401.029 660.799Z" fill="#FFB5C0"/>
<path d="M564.945 660.799C581.647 660.799 595.186 650.017 595.186 636.717C595.186 623.416 581.647 612.634 564.945 612.634C548.243 612.634 534.704 623.416 534.704 636.717C534.704 650.017 548.243 660.799 564.945 660.799Z" fill="#FFB5C0"/>
<path d="M418.653 593.446C414.385 593.446 410.927 596.905 410.927 601.173V613.535C410.927 617.803 414.385 621.261 418.653 621.261C422.921 621.261 426.379 617.803 426.379 613.535V601.173C426.379 596.905 422.92 593.446 418.653 593.446Z" fill="#313D40"/>
<path d="M547.32 593.446C543.052 593.446 539.593 596.905 539.593 601.173V613.535C539.593 617.803 543.052 621.261 547.32 621.261C551.588 621.261 555.046 617.803 555.046 613.535V601.173C555.046 596.905 551.588 593.446 547.32 593.446Z" fill="#313D40"/>
<path d="M490.713 653.789V629.254H475.261V653.79L463.206 665.843C460.189 668.862 460.189 673.753 463.206 676.77C466.226 679.788 471.116 679.787 474.134 676.77L482.987 667.917L491.84 676.77C494.86 679.788 499.75 679.787 502.767 676.77C505.785 673.752 505.785 668.861 502.767 665.843L490.713 653.789Z" fill="#313D40"/>
<path d="M503.591 621.133C503.591 613.101 494.366 606.589 482.987 606.589C471.608 606.589 462.383 613.101 462.383 621.133C462.383 629.166 471.608 639.555 482.987 639.555C494.366 639.555 503.591 629.166 503.591 621.133Z" fill="#FF8E9E"/>
</svg>
