<svg width="963" height="963" viewBox="0 0 963 963" fill="none" xmlns="http://www.w3.org/2000/svg">
<circle cx="481.5" cy="481.5" r="481.5" fill="#D9F3C8"/>
<g clip-path="url(#clip0)">
<path d="M569.773 230C569.773 230 614.309 338.954 423.436 412.138C319.72 451.893 240.06 553.789 335.174 711.193C343.051 640.836 376.827 485.708 522.062 450.309C522.062 450.309 386.886 500.855 374.945 729.656C444.404 739.408 607.306 745.961 655.671 604.594C719.537 417.817 569.773 230 569.773 230Z" fill="#3A7F0D"/>
<path d="M375.008 728.704C522.464 669.855 629.756 531.994 644.564 367.421C614.419 286.107 569.773 230 569.773 230C569.773 230 614.309 338.954 423.436 412.138C319.72 451.893 240.06 553.789 335.174 711.193C343.051 640.836 376.827 485.708 522.062 450.309C522.054 450.31 387.28 500.73 375.008 728.704Z" fill="#49A010"/>
<path d="M320.46 415.77C328.073 415.77 334.245 409.598 334.245 401.985C334.245 394.372 328.073 388.2 320.46 388.2C312.847 388.2 306.675 394.372 306.675 401.985C306.675 409.598 312.847 415.77 320.46 415.77Z" fill="#3A7F0D"/>
<path d="M363.783 398.046C369.22 398.046 373.629 393.638 373.629 388.2C373.629 382.762 369.22 378.354 363.783 378.354C358.345 378.354 353.937 382.762 353.937 388.2C353.937 393.638 358.345 398.046 363.783 398.046Z" fill="#49A010"/>
<path d="M354.922 319.277C368.516 319.277 379.537 308.256 379.537 294.662C379.537 281.067 368.516 270.047 354.922 270.047C341.327 270.047 330.307 281.067 330.307 294.662C330.307 308.256 341.327 319.277 354.922 319.277Z" fill="#49A010"/>
<path d="M430.736 358.662C435.087 358.662 438.613 355.135 438.613 350.785C438.613 346.434 435.087 342.908 430.736 342.908C426.386 342.908 422.859 346.434 422.859 350.785C422.859 355.135 426.386 358.662 430.736 358.662Z" fill="#49A010"/>
<path d="M496.713 329.123C509.22 329.123 519.359 318.984 519.359 306.477C519.359 293.97 509.22 283.831 496.713 283.831C484.206 283.831 474.067 293.97 474.067 306.477C474.067 318.984 484.206 329.123 496.713 329.123Z" fill="#49A010"/>
</g>
<defs>
<clipPath id="clip0">
<rect width="504.125" height="504.125" fill="white" transform="translate(230.001 230)"/>
</clipPath>
</defs>
</svg>
