<svg width="963" height="963" viewBox="0 0 963 963" fill="none" xmlns="http://www.w3.org/2000/svg">
<circle cx="481.5" cy="481.5" r="481.5" fill="#DEBA6A"/>
<path d="M482.005 238.733C484.891 238.732 487.777 237.966 490.377 236.435C498.375 231.726 512.098 226 531.547 226C568.866 226 597.614 242.516 597.614 242.516L581.098 259.032C598.85 263.766 608.969 266.602 628.467 276.818C697.036 312.745 729.743 391.161 729.743 391.161H696.711C738 457.226 738 548.065 738 548.065L713.226 539.807C713.226 539.807 713.226 614.13 680.194 663.678L655.42 647.162C655.42 647.162 630.646 688.452 589.355 713.227L572.839 696.711C572.839 696.711 531.549 729.743 482 738.001C432.452 729.743 391.161 696.711 391.161 696.711L374.645 713.227C333.355 688.453 308.58 647.162 308.58 647.162L283.806 663.678C250.775 614.13 250.775 539.807 250.775 539.807L226.001 548.065C226.001 548.065 226.001 457.226 267.291 391.162H234.259C234.259 391.162 266.966 312.746 335.535 276.819C355.033 266.603 365.152 263.767 382.904 259.033L366.388 242.517C366.388 242.517 395.135 226.001 432.455 226.001C451.904 226.001 465.627 231.727 473.625 236.437C476.225 237.968 479.111 238.734 481.997 238.735" fill="#D26437"/>
<path d="M413.22 317.077C413.22 317.077 437.097 268.323 477.281 237.98C476.026 237.601 474.79 237.122 473.624 236.436C465.627 231.726 451.904 226 432.455 226C395.136 226 366.388 242.516 366.388 242.516L382.904 259.032C365.152 263.766 355.033 266.602 335.535 276.818C266.966 312.745 234.259 391.161 234.259 391.161H267.291C226.001 457.226 226.001 548.065 226.001 548.065L250.775 539.807C250.775 539.807 250.775 614.13 283.807 663.678L308.581 647.162C308.581 647.162 333.355 688.452 374.646 713.227L391.162 696.711C391.162 696.711 432.452 729.743 482.001 738.001C482.001 738 422.13 713.226 413.22 317.077Z" fill="#B44632"/>
<path d="M636.232 276.111C655.778 272.321 673.686 288.204 671.799 308.024C669.456 332.63 651.377 376.021 626.603 401.57L547.033 321.484C577.522 297.282 615.392 280.152 636.232 276.111Z" fill="#EBAF4B"/>
<path d="M568.607 343.198C593.963 323.816 631.448 298.319 641.83 297.276C653.762 296.077 661.201 312.536 656.536 330.299C652.486 345.721 637.038 374.009 621.66 396.595L568.607 343.198Z" fill="#E18C46"/>
<path d="M327.77 276.111C308.224 272.321 290.316 288.204 292.203 308.024C294.546 332.63 312.625 376.021 337.399 401.57L416.969 321.484C386.48 297.282 348.61 280.152 327.77 276.111Z" fill="#EBAF4B"/>
<path d="M395.395 343.198C370.039 323.816 332.554 298.319 322.172 297.276C310.24 296.077 302.801 312.536 307.466 330.299C311.516 345.721 326.964 374.009 342.342 396.595L395.395 343.198Z" fill="#E18C46"/>
<path d="M581.098 325.097C548.505 299.747 482.001 341.613 482.001 341.613C482.001 341.613 415.497 299.747 382.904 325.097C308.581 382.903 292.065 548.065 300.323 581.097C306.332 605.131 358.129 647.162 415.936 663.678H548.065C605.871 647.162 657.669 605.132 663.678 581.097C671.936 548.065 655.42 382.903 581.098 325.097Z" fill="#FFC850"/>
<path d="M351.236 629.816C344.893 590.209 359.894 414.473 413.22 317.077C402.009 316.537 391.321 318.55 382.904 325.097C308.581 382.903 292.065 548.065 300.323 581.097C303.94 595.566 324.212 616.536 352.34 634.555C351.916 632.944 351.478 631.326 351.236 629.816Z" fill="#EBAF4B"/>
<path d="M663.678 539.701C657.669 563.735 605.872 605.766 548.065 622.282H415.936C358.13 605.766 306.332 563.736 300.323 539.701C299.947 538.2 299.643 536.338 299.373 534.312C297.738 555.801 298.227 572.713 300.323 581.096C306.332 605.13 358.129 647.162 415.936 663.678H548.065C605.871 647.162 657.669 605.131 663.678 581.096C665.774 572.713 666.263 555.801 664.628 534.312C664.359 536.336 664.054 538.199 663.678 539.701Z" fill="#FAEBC8"/>
<path d="M413.462 650.27C417.749 676.606 440.601 696.71 468.148 696.71H495.853C523.286 696.71 546.064 676.772 550.486 650.597L482.006 638.904L413.462 650.27Z" fill="#F5DCB4"/>
<path d="M527.42 572.839C508.265 572.839 491.5 580.581 482.001 592.195C472.502 580.581 455.736 572.839 436.582 572.839C406.937 572.839 382.905 591.325 382.905 614.129C382.905 636.933 406.937 655.419 436.582 655.419C455.737 655.419 472.502 647.677 482.001 636.063C491.5 647.677 508.266 655.419 527.42 655.419C557.065 655.419 581.097 636.933 581.097 614.129C581.097 591.325 557.066 572.839 527.42 572.839Z" fill="#FAEBC8"/>
<path d="M524.017 663.411C509.59 663.411 496.001 658.629 484.719 649.584C483.122 648.302 480.888 648.302 479.275 649.584C468.001 658.628 454.412 663.411 439.985 663.411C405.13 663.411 376.775 634.851 376.775 599.746C376.775 595.186 380.469 591.488 385.033 591.488C389.597 591.488 393.291 595.186 393.291 599.746C393.291 625.746 414.235 646.895 439.985 646.895C450.614 646.895 460.63 643.371 468.945 636.697C476.639 630.536 487.372 630.536 495.05 636.697C503.373 643.37 513.389 646.895 524.018 646.895C549.768 646.895 570.712 625.746 570.712 599.746C570.712 595.186 574.406 591.488 578.97 591.488C583.534 591.488 587.228 595.186 587.228 599.746C587.227 634.851 558.872 663.411 524.017 663.411Z" fill="#D4AF91"/>
<path d="M437.445 587.269L454.986 601.894C470.634 614.94 493.369 614.94 509.016 601.894L526.557 587.27C534.328 580.791 529.797 568.142 519.68 568.142C497.277 568.142 466.726 568.142 444.322 568.141C434.205 568.141 429.674 580.79 437.445 587.269Z" fill="#5D5360"/>
<path d="M482.001 440.71C477.436 440.71 473.743 437.012 473.743 432.452V365.033C473.743 360.473 477.437 356.775 482.001 356.775C486.565 356.775 490.259 360.473 490.259 365.033V432.452C490.259 437.012 486.566 440.71 482.001 440.71Z" fill="#FFDC64"/>
<path d="M399.42 523.29C385.738 523.29 374.646 512.198 374.646 498.516V490.258C374.646 476.576 385.738 465.484 399.42 465.484C413.102 465.484 424.194 476.576 424.194 490.258V498.516C424.195 512.199 413.103 523.29 399.42 523.29Z" fill="#4B3F4E"/>
<path d="M399.42 465.484V494.387C399.42 501.228 404.966 506.774 411.807 506.774C418.648 506.774 424.194 501.228 424.194 494.387V490.258C424.195 476.576 413.103 465.484 399.42 465.484Z" fill="#5D5360"/>
<path d="M399.421 490.258C403.982 490.258 407.679 486.561 407.679 482C407.679 477.439 403.982 473.742 399.421 473.742C394.86 473.742 391.163 477.439 391.163 482C391.163 486.561 394.86 490.258 399.421 490.258Z" fill="white"/>
<path d="M564.582 523.29C550.9 523.29 539.808 512.198 539.808 498.516V490.258C539.808 476.576 550.9 465.484 564.582 465.484C578.264 465.484 589.356 476.576 589.356 490.258V498.516C589.356 512.199 578.264 523.29 564.582 523.29Z" fill="#4B3F4E"/>
<path d="M564.582 465.484V494.387C564.582 501.228 570.128 506.774 576.969 506.774C583.81 506.774 589.356 501.228 589.356 494.387V490.258C589.356 476.576 578.264 465.484 564.582 465.484Z" fill="#5D5360"/>
<path d="M564.581 490.258C569.142 490.258 572.839 486.561 572.839 482C572.839 477.439 569.142 473.742 564.581 473.742C560.02 473.742 556.323 477.439 556.323 482C556.323 486.561 560.02 490.258 564.581 490.258Z" fill="white"/>
<path d="M486.953 600.633L469.411 580.46C466.487 577.097 465.31 572.531 465.511 568.141C458.038 568.141 450.821 568.141 444.322 568.141C434.205 568.141 429.674 580.79 437.444 587.269L454.985 601.894C466.927 611.851 482.978 614.151 496.876 608.91C493.386 606.768 490.009 604.147 486.953 600.633Z" fill="#4B3F4E"/>
<path d="M300.324 539.701C299.948 538.2 299.644 536.338 299.374 534.312C297.739 555.801 298.228 572.713 300.324 581.096C303.941 595.565 324.213 616.535 352.341 634.555C351.917 632.944 351.479 631.326 351.237 629.816C349.977 621.95 349.576 608.653 350.133 591.728C323.159 574.036 303.845 553.788 300.324 539.701Z" fill="#F5DCB4"/>
</svg>
