<svg width="331" height="246" viewBox="0 0 331 246" fill="none" xmlns="http://www.w3.org/2000/svg">
<path fill-rule="evenodd" clip-rule="evenodd" d="M103.5 128C135.256 128 161 102.256 161 70.5C161 38.7436 135.256 13 103.5 13C71.7436 13 46 38.7436 46 70.5C46 102.256 71.7436 128 103.5 128ZM103.5 141C142.436 141 174 109.436 174 70.5C174 31.5639 142.436 0 103.5 0C64.5639 0 33 31.5639 33 70.5C33 109.436 64.5639 141 103.5 141ZM104 154C92.0497 154 80.2164 156.354 69.1758 160.927C58.1352 165.5 48.1034 172.203 39.6533 180.653C31.2031 189.103 24.5001 199.135 19.927 210.176C15.3538 221.216 13 233.05 13 245H0C0 231.343 2.69004 217.819 7.91653 205.201C13.143 192.583 20.8036 181.118 30.4609 171.461C40.1182 161.804 51.5831 154.143 64.2009 148.917C76.8188 143.69 90.3425 141 104 141C117.657 141 131.181 143.69 143.799 148.917C156.417 154.143 167.882 161.804 177.539 171.461C187.196 181.118 194.857 192.583 200.083 205.201C205.31 217.819 208 231.343 208 245H195C195 233.05 192.646 221.216 188.073 210.176C183.5 199.135 176.797 189.103 168.347 180.653C159.897 172.203 149.865 165.5 138.824 160.927C127.784 156.354 115.95 154 104 154ZM237 138C265.167 138 288 115.167 288 87C288 58.8335 265.167 36 237 36C208.833 36 186 58.8335 186 87C186 115.167 208.833 138 237 138ZM237 151C272.346 151 301 122.346 301 87C301 51.6538 272.346 23 237 23C201.654 23 173 51.6538 173 87C173 122.346 201.654 151 237 151ZM271.833 171.928C258.103 165.344 242.811 162.784 227.709 164.536C212.606 166.288 198.293 172.283 186.411 181.841L178.263 171.711C192.05 160.62 208.668 153.658 226.211 151.623C243.754 149.588 261.513 152.562 277.454 160.205C293.394 167.848 306.872 179.85 316.342 194.837C325.812 209.824 330.891 227.188 330.998 244.942L317.999 245.02C317.906 229.695 313.521 214.709 305.352 201.782C297.183 188.854 285.564 178.511 271.833 171.928Z" fill="white"/>
</svg>
