<svg width="963" height="963" viewBox="0 0 963 963" fill="none" xmlns="http://www.w3.org/2000/svg">
<circle cx="481.5" cy="481.5" r="481.5" fill="#FFDCD9"/>
<path d="M701.473 251.789C719.027 247.12 736.878 260.13 737.807 278.27C737.909 280.26 737.975 282.278 737.994 284.322L673.663 421.668L589.456 316.88C618.078 290.653 668.595 260.535 701.473 251.789V251.789Z" fill="#FFB9B4"/>
<path d="M616.237 348.127C645.159 322.328 694.099 293.363 726.24 284.813C730.195 283.761 734.205 283.723 737.993 284.322C738.421 329.922 718.344 388.406 688.526 432.465L616.237 348.127Z" fill="#FF9A9F"/>
<path d="M262.527 251.79C244.973 247.121 227.123 260.131 226.194 278.271C226.092 280.26 226.026 282.277 226.007 284.32C225.59 329.915 256.694 369.956 286.505 414.003L374.545 316.882C345.922 290.654 295.406 260.536 262.527 251.79V251.79Z" fill="#FF9A9F"/>
<path d="M347.763 348.127C318.842 322.328 269.901 293.363 237.76 284.813C233.805 283.761 229.795 283.72 226.007 284.319C225.578 329.918 245.654 388.406 275.474 432.464L347.763 348.127Z" fill="#FF8086"/>
<path d="M704.783 490.256C704.783 546.747 683.769 598.329 649.132 637.613C608.285 683.942 548.492 710.493 481.872 710.493C358.762 710.493 264.505 613.365 264.505 490.255C264.505 423.634 288.188 363.839 334.517 322.992C373.801 288.357 425.383 267.345 481.873 267.345C604.982 267.346 704.783 367.146 704.783 490.256V490.256Z" fill="#FFB9B4"/>
<path d="M580.944 597.583C580.944 556.546 536.588 523.28 481.873 523.28C454.43 523.28 429.593 531.649 411.651 545.169C393.821 558.605 390.336 577.129 390.336 597.583C390.336 638.62 427.157 668.246 481.873 668.246C519.219 668.246 551.739 656.389 568.622 633.499C576.474 622.854 580.944 610.61 580.944 597.583V597.583Z" fill="#FF9A9F"/>
<path d="M501.775 693.264C378.665 693.264 278.865 593.463 278.865 470.353C278.865 413.864 299.882 362.277 334.518 322.993C288.188 363.84 258.962 423.636 258.962 490.256C258.962 613.366 358.763 713.166 481.872 713.166C548.493 713.166 608.285 683.942 649.132 637.612C609.848 672.248 558.265 693.264 501.775 693.264V693.264Z" fill="#FF9A9F"/>
<path d="M448.849 614.096C457.968 614.096 465.361 606.704 465.361 597.584C465.361 588.465 457.968 581.072 448.849 581.072C439.729 581.072 432.337 588.465 432.337 597.584C432.337 606.704 439.729 614.096 448.849 614.096Z" fill="#BD4150"/>
<path d="M391.057 482.001C400.177 482.001 407.569 474.608 407.569 465.489C407.569 456.369 400.177 448.977 391.057 448.977C381.938 448.977 374.545 456.369 374.545 465.489C374.545 474.608 381.938 482.001 391.057 482.001Z" fill="#4B3F4E"/>
<path d="M514.897 614.096C524.016 614.096 531.409 606.704 531.409 597.584C531.409 588.465 524.016 581.072 514.897 581.072C505.778 581.072 498.385 588.465 498.385 597.584C498.385 606.704 505.778 614.096 514.897 614.096Z" fill="#BD4150"/>
<path d="M572.689 482.001C581.808 482.001 589.201 474.608 589.201 465.489C589.201 456.369 581.808 448.977 572.689 448.977C563.569 448.977 556.177 456.369 556.177 465.489C556.177 474.608 563.569 482.001 572.689 482.001Z" fill="#4B3F4E"/>
<path d="M498.384 655.375C443.668 655.375 399.313 622.108 399.313 581.072C399.313 568.047 403.802 555.813 411.651 545.169C393.822 558.605 382.801 577.13 382.801 597.585C382.801 638.621 427.157 671.888 481.873 671.888C519.223 671.888 551.74 656.393 568.622 633.501C550.681 647.02 525.828 655.375 498.384 655.375V655.375Z" fill="#FF8086"/>
</svg>
