<svg width="181" height="215" viewBox="0 0 181 215" fill="none" xmlns="http://www.w3.org/2000/svg">
<path d="M179.926 55.171C179.816 49.386 179.711 43.921 179.711 38.634C179.711 34.492 176.354 31.134 172.211 31.134C140.136 31.134 115.715 21.916 95.359 2.12399C92.447 -0.708009 87.813 -0.707009 84.902 2.12399C64.548 21.916 40.131 31.134 8.05799 31.134C3.91599 31.134 0.557992 34.492 0.557992 38.634C0.557992 43.922 0.453992 49.389 0.342992 55.175C-0.685008 109.011 -2.093 182.742 87.674 213.857C88.47 214.133 89.3 214.271 90.13 214.271C90.96 214.271 91.791 214.133 92.586 213.857C182.36 182.741 180.954 109.008 179.926 55.171ZM90.131 198.812C13.144 170.845 14.308 109.58 15.341 55.461C15.403 52.213 15.463 49.065 15.505 45.979C45.545 44.711 69.567 35.608 90.131 17.694C110.697 35.608 134.723 44.712 164.765 45.979C164.807 49.064 164.867 52.21 164.929 55.456C165.961 109.577 167.124 170.844 90.131 198.812Z" fill="white"/>
<path d="M52.952 154L71.374 66.892H100.41C109.763 66.892 116.473 68.6813 120.54 72.26C124.607 75.8387 126.64 80.3933 126.64 85.924C126.64 91.8613 125.095 96.66 122.004 100.32C118.995 103.98 114.643 106.664 108.95 108.372V108.86C112.447 109.999 115.213 112.032 117.246 114.96C119.361 117.807 120.418 121.304 120.418 125.452C120.418 132.203 118.832 137.693 115.66 141.922C112.569 146.151 108.381 149.242 103.094 151.194C97.8887 153.065 92.0327 154 85.526 154H52.952ZM91.87 100.32C95.9367 100.32 98.702 99.4253 100.166 97.636C101.711 95.8467 102.484 93.5693 102.484 90.804C102.484 86.7373 99.9627 84.704 94.92 84.704H91.138L87.6 100.32H91.87ZM85.038 135.822C88.6167 135.822 91.504 134.846 93.7 132.894C95.896 130.861 96.994 128.461 96.994 125.696C96.994 122.931 96.3433 120.897 95.042 119.596C93.7407 118.213 91.4227 117.522 88.088 117.522H84.062L80.158 135.822H85.038Z" fill="white"/>
</svg>
