<svg width="963" height="963" viewBox="0 0 963 963" fill="none" xmlns="http://www.w3.org/2000/svg">
<circle cx="481.5" cy="481.5" r="481.5" fill="#C9C9C9"/>
<path d="M682.409 230.169C693.524 225.923 705.469 234.31 704.952 246.197C700.784 341.998 671.936 421.144 671.936 421.144L539.807 338.563C589.468 278.749 653.001 241.404 682.409 230.169Z" fill="#6F6571"/>
<path d="M677.187 259.241C683.978 255.435 690.894 263.587 690.233 274.815C684.903 365.299 656.968 427.337 656.968 427.337L588.465 359.035C620.015 303.423 659.219 269.311 677.187 259.241Z" fill="#C0BCC1"/>
<path d="M281.591 230.169C270.476 225.923 258.531 234.31 259.048 246.197C263.216 341.998 292.064 421.144 292.064 421.144L424.193 338.563C374.532 278.749 310.998 241.404 281.591 230.169Z" fill="#6F6571"/>
<path d="M286.813 259.241C280.022 255.435 273.106 263.587 273.767 274.815C279.097 365.299 307.032 427.337 307.032 427.337L375.535 359.035C343.985 303.423 304.781 269.311 286.813 259.241Z" fill="#C0BCC1"/>
<path d="M482 734.95C509.365 734.95 531.548 720.162 531.548 701.92C531.548 683.678 509.365 668.89 482 668.89C454.635 668.89 432.452 683.678 432.452 701.92C432.452 720.162 454.635 734.95 482 734.95Z" fill="#5D5360"/>
<path d="M738 569.789C706.526 410.572 602.849 322.047 482 322.047C361.151 322.047 257.474 410.572 226 569.789C226 569.789 274.058 583.572 279.81 586.305L271.929 619.202C271.195 622.265 272.949 625.373 275.954 626.32C294.905 632.292 360.2 653.649 403.968 677.674H560.031C603.799 653.649 669.094 632.292 688.045 626.32C691.049 625.373 692.803 622.265 692.07 619.202L684.189 586.305C689.942 583.572 738 569.789 738 569.789Z" fill="#867E88"/>
<path d="M482 545.014C454.906 545.014 430.5 561.359 420.145 586.396C409.8 611.407 399.42 636.286 399.42 660.627C399.42 684.516 430.015 719.691 476.743 700.543C480.134 699.153 483.867 699.153 487.258 700.543C533.986 719.692 564.581 684.517 564.581 660.627C564.581 636.285 554.201 611.407 543.856 586.396C533.5 561.359 509.094 545.014 482 545.014Z" fill="#6F6571"/>
<path d="M271.93 619.201C271.196 622.264 272.95 625.372 275.955 626.319C294.906 632.291 360.201 653.648 403.969 677.673V677.672C401.048 671.913 399.42 665.991 399.42 660.627C399.42 612.144 440.71 561.53 440.71 511.982C440.71 476.885 415.419 438.692 366.387 445.917C325.659 451.92 273.484 481.014 226 569.789C226 569.789 274.058 583.572 279.81 586.305L271.93 619.201Z" fill="#C0BCC1"/>
<path d="M692.07 619.201C692.804 622.264 691.05 625.372 688.045 626.319C669.094 632.291 603.799 653.648 560.031 677.673V677.672C562.952 671.913 564.58 665.991 564.58 660.627C564.58 612.144 523.29 561.53 523.29 511.982C523.29 476.885 548.58 438.692 597.613 445.917C638.341 451.919 690.516 481.014 738 569.788C738 569.788 689.942 583.571 684.19 586.304L692.07 619.201Z" fill="#C0BCC1"/>
<path d="M378.774 553.272C362.877 553.272 349.871 540.266 349.871 524.369V507.853C349.871 491.956 362.877 478.95 378.774 478.95C394.671 478.95 407.677 491.956 407.677 507.853V524.369C407.677 540.266 394.671 553.272 378.774 553.272Z" fill="#4B3F4E"/>
<path d="M378.774 478.95C377.361 478.95 376.005 479.171 374.645 479.369V520.24C374.645 529.361 382.04 536.756 391.161 536.756C400.283 536.756 407.677 529.361 407.677 520.24V507.853C407.677 491.956 394.671 478.95 378.774 478.95Z" fill="#5D5360"/>
<path d="M378.77 511.987C385.611 511.987 391.157 506.441 391.157 499.6C391.157 492.759 385.611 487.213 378.77 487.213C371.929 487.213 366.383 492.759 366.383 499.6C366.383 506.441 371.929 511.987 378.77 511.987Z" fill="white"/>
<path d="M585.226 553.272C569.329 553.272 556.323 540.266 556.323 524.369V507.853C556.323 491.956 569.329 478.95 585.226 478.95C601.123 478.95 614.129 491.956 614.129 507.853V524.369C614.129 540.266 601.123 553.272 585.226 553.272Z" fill="#4B3F4E"/>
<path d="M585.226 478.95C583.813 478.95 582.457 479.171 581.097 479.369V520.24C581.097 529.361 588.492 536.756 597.613 536.756C606.735 536.756 614.129 529.361 614.129 520.24V507.853C614.129 491.956 601.122 478.95 585.226 478.95Z" fill="#5D5360"/>
<path d="M585.23 511.987C592.071 511.987 597.617 506.441 597.617 499.6C597.617 492.759 592.071 487.213 585.23 487.213C578.389 487.213 572.843 492.759 572.843 499.6C572.843 506.441 578.389 511.987 585.23 511.987Z" fill="white"/>
<path d="M523.29 646.726C523.29 631.599 504.59 619.337 481.522 619.337C458.454 619.337 439.754 631.599 439.754 646.726C439.754 656.977 454.352 665.033 467.43 670.889C471.284 672.615 473.741 676.432 473.741 680.655V701.583C474.748 701.215 475.719 700.962 476.742 700.543C480.133 699.153 483.866 699.153 487.257 700.543C488.28 700.962 489.25 701.215 490.257 701.583V680.561C490.257 676.372 492.678 672.579 496.486 670.834C509.253 664.982 523.29 656.944 523.29 646.726Z" fill="#4B3F4E"/>
<path d="M482 322.047C361.151 322.047 257.474 410.572 226 569.789C226 569.789 274.058 583.572 279.81 586.305L271.929 619.202C271.195 622.265 272.95 625.373 275.954 626.32C284.969 629.162 304.469 635.485 327.145 643.917C288.128 399.296 451.567 322.047 482 322.047Z" fill="#6F6571"/>
<path d="M327.146 643.917C314.138 562.363 323.547 499.391 343.139 451.725C306.844 464.492 264.856 497.145 226 569.789C226 569.789 274.058 583.572 279.81 586.305L271.929 619.202C271.195 622.265 272.95 625.373 275.954 626.32C284.969 629.162 304.469 635.486 327.146 643.917Z" fill="#AEA8AF"/>
</svg>
